<?xml version="1.0" encoding="UTF-8"?>
<svg width="240" height="68" viewBox="0 0 240 68" xmlns="http://www.w3.org/2000/svg">
  <g fill="none" fill-rule="evenodd">
    <path d="M30.5,20.4c-3.8-1.3-7.2-2-10.2-2c-1.8,0-3.2,0.3-4.1,0.8C15.4,19.7,15,20.5,15,21.5c0,0.9,0.4,1.7,1.3,2.2
      c0.9,0.5,2.8,1.2,5.7,2c3.5,1,6.1,2.1,7.9,3.5c1.8,1.3,2.6,3.3,2.6,5.9c0,2.9-1.1,5.2-3.3,7c-2.2,1.8-5.2,2.7-9,2.7
      c-4.4,0-8.6-0.9-12.7-2.6l1.7-6.2c4,1.9,7.5,2.8,10.7,2.8c2,0,3.5-0.3,4.5-0.9c1.1-0.6,1.6-1.5,1.6-2.6c0-1-0.4-1.8-1.3-2.3
      c-0.9-0.5-2.4-1.1-4.6-1.7c-3.9-1-6.7-2.2-8.5-3.5c-1.8-1.3-2.7-3.3-2.7-6c0-2.8,1.1-5,3.2-6.7c2.1-1.7,5-2.5,8.7-2.5
      c3.6,0,7.2,0.6,10.8,1.9L30.5,20.4z" fill="#000000"/>
    <path d="M55.9,14c3.7,0,6.6,1.1,8.7,3.4c2.1,2.3,3.2,5.4,3.2,9.4v17h-7.9V28.3c0-2.1-0.4-3.6-1.3-4.7c-0.9-1-2.2-1.5-3.9-1.5
      c-1.9,0-3.4,0.7-4.5,2c-1.1,1.3-1.6,3.3-1.6,6v13.7h-7.9V14.6h7.9v3.6C51.1,15.5,53.1,14,55.9,14z" fill="#000000"/>
    <path d="M84.6,14.6v29.1H76.7V14.6H84.6z M76.3,7.2c0-1.3,0.4-2.3,1.3-3.1c0.9-0.8,2-1.2,3.4-1.2c1.3,0,2.5,0.4,3.3,1.2
      c0.9,0.8,1.3,1.8,1.3,3.1c0,1.3-0.4,2.3-1.3,3.1c-0.9,0.8-2,1.2-3.3,1.2c-1.4,0-2.5-0.4-3.4-1.2C76.8,9.5,76.3,8.5,76.3,7.2z" fill="#000000"/>
    <path d="M101.2,43.7h-7.9V3.8h7.9V43.7z" fill="#000000"/>
    <path d="M119.7,43.7h-7.9V14.6h7.9v3.5c1.5-2.7,3.8-4.1,7.1-4.1c0.4,0,0.9,0,1.3,0.1v7.5c-0.8-0.2-1.6-0.3-2.5-0.3
      c-2,0-3.6,0.5-4.5,1.6c-1,1.1-1.5,2.7-1.5,5V43.7z" fill="#000000"/>
    <path d="M150.9,14c3.7,0,6.6,1.1,8.7,3.4c2.1,2.3,3.2,5.4,3.2,9.4v17h-7.9V28.3c0-2.1-0.4-3.6-1.3-4.7c-0.9-1-2.2-1.5-3.9-1.5
      c-1.9,0-3.4,0.7-4.5,2c-1.1,1.3-1.6,3.3-1.6,6v13.7h-7.9V14.6h7.9v3.6C146.1,15.5,148.1,14,150.9,14z" fill="#000000"/>
      
    <!-- Circle part -->
    <circle cx="184" cy="34" r="14" fill="#3FA9F5" />
    <!-- Quarter circle part - top right -->
    <path d="M184,34 L184,20 A14,14 0 0,1 198,34 Z" fill="#7AC943" />
  </g>
</svg>