<?xml version="1.0" encoding="UTF-8"?>
<svg width="300" height="80" viewBox="0 0 300 80" fill="none" xmlns="http://www.w3.org/2000/svg">
  <!-- SPLTRR Logo - Three circles forming the logo mark -->
  <path d="M30 10C30 15.523 25.523 20 20 20C14.477 20 10 15.523 10 10C10 4.477 14.477 0 20 0C25.523 0 30 4.477 30 10Z" fill="#3FA9F5"/>
  <path d="M20 20C25.523 20 30 24.477 30 30C30 35.523 25.523 40 20 40C14.477 40 10 35.523 10 30C10 24.477 14.477 20 20 20Z" fill="#3FA9F5"/>
  <path d="M30 30C35.523 30 40 34.477 40 40C40 45.523 35.523 50 30 50C24.477 50 20 45.523 20 40C20 34.477 24.477 30 30 30Z" fill="#7AC943"/>
  
  <!-- Text: SPLTRR -->
  <!-- S -->
  <path d="M55 10H70C72 10 73.5 10.5 74.5 11.5C75.5 12.5 76 14 76 16C76 18 75.5 19.5 74.5 20.5C73.5 21.5 72 22 70 22H65V30H60V10H55ZM65 18H68C68.7 18 69.2 17.8 69.5 17.5C69.8 17.2 70 16.7 70 16C70 15.3 69.8 14.8 69.5 14.5C69.2 14.2 68.7 14 68 14H65V18Z" fill="#FFFFFF"/>
  
  <!-- P -->
  <path d="M80 10H95C97 10 98.5 10.5 99.5 11.5C100.5 12.5 101 14 101 16C101 18 100.5 19.5 99.5 20.5C98.5 21.5 97 22 95 22H85V30H80V10ZM85 18H93C93.7 18 94.2 17.8 94.5 17.5C94.8 17.2 95 16.7 95 16C95 15.3 94.8 14.8 94.5 14.5C94.2 14.2 93.7 14 93 14H85V18Z" fill="#FFFFFF"/>
  
  <!-- L -->
  <path d="M105 10H110V25H120V30H105V10Z" fill="#FFFFFF"/>
  
  <!-- T -->
  <path d="M125 10H140V15H135V30H130V15H125V10Z" fill="#FFFFFF"/>
  
  <!-- R -->
  <path d="M145 10H160C162 10 163.5 10.5 164.5 11.5C165.5 12.5 166 14 166 16C166 17.3 165.7 18.5 165 19.5C164.3 20.5 163.3 21.2 162 21.5L167 30H161L157 22H150V30H145V10ZM150 18H158C158.7 18 159.2 17.8 159.5 17.5C159.8 17.2 160 16.7 160 16C160 15.3 159.8 14.8 159.5 14.5C159.2 14.2 158.7 14 158 14H150V18Z" fill="#FFFFFF"/>
  
  <!-- R -->
  <path d="M170 10H185C187 10 188.5 10.5 189.5 11.5C190.5 12.5 191 14 191 16C191 17.3 190.7 18.5 190 19.5C189.3 20.5 188.3 21.2 187 21.5L192 30H186L182 22H175V30H170V10ZM175 18H183C183.7 18 184.2 17.8 184.5 17.5C184.8 17.2 185 16.7 185 16C185 15.3 184.8 14.8 184.5 14.5C184.2 14.2 183.7 14 183 14H175V18Z" fill="#FFFFFF"/>
</svg>